<?xml version='1.0' encoding='UTF-8' standalone='no'?>
<!-- Created with Fritzing (http://www.fritzing.org/) -->
<svg xmlns="http://www.w3.org/2000/svg" width="1.10236in" x="0in" version="1.2" y="0in"  height="1.10236in" viewBox="0 0 79.3701 79.3701" baseProfile="tiny" xmlns:svg="http://www.w3.org/2000/svg">
 <g partID="20190">
  <g  id="board">
   <rect width="78.7941" x="0.288" y="0.288" fill="none"  height="78.7941" stroke="black" fill-opacity="0.5" id="boardoutline" stroke-width="0.5"/>
  </g>
 </g>
 <g partID="56420">
  <g transform="translate(16.8512,59.0584)">
   <g  id="copper0">
    <g  id="copper1">
     <!-- <rect width="55" x="35" y="35" fill="none" height="55" stroke="rgb(255, 191, 0)" stroke-width="20" /> -->
     <circle fill="none" cx="4.5"  cy="4.5" stroke="black" r="1.98" id="connector0pin" stroke-width="1.44"/>
     <circle fill="none" cx="11.7"  cy="4.5" stroke="black" r="1.98" id="connector1pin" stroke-width="1.44"/>
    </g>
   </g>
  </g>
 </g>
 <g partID="56450">
  <g transform="translate(68.5112,49.5184)">
   <g transform="matrix(-1,3.14012e-16,-3.14012e-16,-1,0,0)">
    <g  id="copper0">
     <rect width="3.96" x="1.98" y="5.58" fill="none"  height="3.96" stroke="black" id="rect11" stroke-width="1.44"/>
     <circle fill="none" cx="3.96"  cy="7.56" stroke="black" r="1.98" id="connector0pin" stroke-width="1.44"/>
     <circle fill="none" cx="11.16"  cy="7.56" stroke="black" r="1.98" id="connector1pin" stroke-width="1.44"/>
    </g>
   </g>
  </g>
 </g>
 <g partID="57490">
  <g transform="translate(42.6632,12.8704)">
   <g  id="copper0">
    <circle fill="none" cx="7.488"  cy="7.488" connectorname="ADJ" stroke="black" id="connector0pad" r="2.04066" stroke-width="1.24668"/>
    <path fill="black"  stroke="none" stroke-width="0" d="m4.824,4.824,5.328,0,0,5.328,-5.328,0,0,-5.328zM6.07068,7.488a1.41732,1.41732,0,1,0,2.83465,0,1.41732,1.41732,0,1,0,-2.83465,0z"/>
    <circle fill="none" cx="14.688"  cy="7.488" connectorname="OUT" stroke="black" id="connector2pad" r="2.04066" stroke-width="1.24668"/>
    <circle fill="none" cx="21.888"  cy="7.488" connectorname="IN" stroke="black" id="connector1pad" r="2.04066" stroke-width="1.24668"/>
   </g>
  </g>
 </g>
 <g partID="58660">
  <g transform="translate(39.7112,35.1184)">
   <g transform="matrix(-1,3.14012e-16,-3.14012e-16,-1,0,0)">
    <g  id="copper0">
     <rect width="3.96" x="1.98" y="5.58" fill="none"  height="3.96" stroke="black" id="rect11" stroke-width="1.44"/>
     <circle fill="none" cx="3.96"  cy="7.56" stroke="black" r="1.98" id="connector0pin" stroke-width="1.44"/>
     <circle fill="none" cx="11.16"  cy="7.56" stroke="black" r="1.98" id="connector1pin" stroke-width="1.44"/>
    </g>
   </g>
  </g>
 </g>
 <g partID="192760">
  <g transform="translate(34.164,60.012)">
   <g  id="copper0">
    <g  id="copper1">
     <circle fill="none" cx="8.7872"  cy="10.6336" stroke="black" id="connector1pad" r="1.7008" stroke-width="1.13384"/>
     <rect width="3.4016" x="7.0864" y="8.9328" fill="none"  height="3.4016" stroke="black" stroke-width="1.13384"/>
     <circle fill="none" cx="8.7872"  cy="3.5464" stroke="black" id="connector0pad" r="1.7008" stroke-width="1.13384"/>
    </g>
   </g>
  </g>
 </g>
 <g partID="64050">
  <g transform="translate(11.9912,18.1984)">
   <g transform="matrix(-1,7.84962e-17,-7.84962e-17,-1,0,0)">
    <g  id="copper0">
     <circle fill="none" cx="5.04"  cy="5.04" stroke="black" id="connector0pin" r="2.088" stroke-width="1.44"/>
     <circle fill="none" cx="5.04"  cy="12.24" stroke="black" id="connector1pin" r="2.088" stroke-width="1.44"/>
    </g>
   </g>
  </g>
 </g>
 <g partID="63990">
  <g transform="translate(11.9912,75.7984)">
   <g transform="matrix(-1,7.84962e-17,-7.84962e-17,-1,0,0)">
    <g  id="copper0">
     <circle fill="none" cx="5.04"  cy="5.04" stroke="black" id="connector0pin" r="2.088" stroke-width="1.44"/>
     <circle fill="none" cx="5.04"  cy="12.24" stroke="black" id="connector1pin" r="2.088" stroke-width="1.44"/>
    </g>
   </g>
  </g>
 </g>
 <g partID="192860">
  <g transform="translate(76.7912,0.9184)">
   <g transform="matrix(1.6465e-16,1,-1,1.6465e-16,0,0)">
    <g  id="copper0">
     <circle fill="none" cx="5.04"  cy="5.04" stroke="black" id="connector0pin" r="2.088" stroke-width="1.44"/>
    </g>
   </g>
  </g>
 </g>
 <g partID="199640">
  <g transform="translate(69.9512,55.7824)">
   <g transform="matrix(2.22045e-16,1,-1,2.22045e-16,0,0)">
    <g  id="copper0">
     <rect width="4.27465" x="5.63868" y="3.26268" fill="none"  height="4.27465" stroke="black" id="square" stroke-width="1.44"/>
     <circle fill="none" cx="7.776"  cy="5.4" stroke="black" id="connector0pin" r="2.13732" stroke-width="1.44"/>
     <circle fill="none" cx="7.776"  cy="12.6" stroke="black" id="connector1pin" r="2.13732" stroke-width="1.44"/>
    </g>
   </g>
  </g>
 </g>
 <g partID="61200">
  <g transform="translate(6.6632,49.4464)">
   <g transform="matrix(-4.71005e-16,-1,1,-4.71005e-16,0,0)">
    <g  id="copper0">
     <circle fill="none" cx="7.488"  cy="7.488" connectorname="ADJ" stroke="black" id="connector0pad" r="2.04066" stroke-width="1.24668"/>
     <path fill="black"  stroke="none" stroke-width="0" d="m4.824,4.824,5.328,0,0,5.328,-5.328,0,0,-5.328zM6.07068,7.488a1.41732,1.41732,0,1,0,2.83465,0,1.41732,1.41732,0,1,0,-2.83465,0z"/>
     <circle fill="none" cx="14.688"  cy="7.488" connectorname="OUT" stroke="black" id="connector2pad" r="2.04066" stroke-width="1.24668"/>
     <circle fill="none" cx="21.888"  cy="7.488" connectorname="IN" stroke="black" id="connector1pad" r="2.04066" stroke-width="1.24668"/>
    </g>
   </g>
  </g>
 </g>
 <g partID="190040">
  <g transform="translate(32.5112,56.7184)">
   <g transform="matrix(-1,0,0,-1,0,0)">
    <g  id="copper0">
     <rect width="3.96" x="1.98" y="5.58" fill="none"  height="3.96" stroke="black" id="rect11" stroke-width="1.44"/>
     <circle fill="none" cx="3.96"  cy="7.56" stroke="black" r="1.98" id="connector0pin" stroke-width="1.44"/>
     <circle fill="none" cx="11.16"  cy="7.56" stroke="black" r="1.98" id="connector1pin" stroke-width="1.44"/>
    </g>
   </g>
  </g>
 </g>
 <g partID="226280">
  <line stroke="black" stroke-linecap="round" y1="49.2376" x1="35.6824" y2="49.2376" stroke-width="1.728" x2="50.1407"/>
 </g>
 <g partID="192310">
  <line stroke="black" stroke-linecap="round" y1="49.1812" x1="30.6111" y2="49.2373" stroke-width="1.728" x2="35.6825"/>
 </g>
 <g partID="205100">
  <line stroke="black" stroke-linecap="round" y1="42.008" x1="35.6824" y2="41.9634" stroke-width="1.728" x2="16.3684"/>
 </g>
 <g partID="192450">
  <line stroke="black" stroke-linecap="round" y1="49.2376" x1="35.6824" y2="29.6184" stroke-width="1.728" x2="35.7447"/>
 </g>
 <g partID="192380">
  <line stroke="black" stroke-linecap="round" y1="49.2376" x1="35.6824" y2="42.0084" stroke-width="1.728" x2="35.6824"/>
 </g>
 <g partID="226660">
  <line stroke="black" stroke-linecap="round" y1="70.7568" x1="50.1408" y2="70.6754" stroke-width="1.728" x2="44.8848"/>
 </g>
 <g partID="226470">
  <line stroke="black" stroke-linecap="round" y1="49.2376" x1="50.1408" y2="70.757" stroke-width="1.728" x2="50.1408"/>
 </g>
 <g partID="83280">
  <line stroke="black" stroke-linecap="round" y1="51.2184" x1="21.3512" y2="61.4984" stroke-width="1.728" x2="21.3512"/>
 </g>
 <g partID="192160">
  <line stroke="black" stroke-linecap="round" y1="27.5496" x1="6.9344" y2="27.5556" stroke-width="1.728" x2="11.9343"/>
 </g>
 <g partID="190460">
  <line stroke="black" stroke-linecap="round" y1="49.2376" x1="6.9344" y2="34.7793" stroke-width="1.728" x2="6.9344"/>
 </g>
 <g partID="183890">
  <line stroke="black" stroke-linecap="round" y1="42.008" x1="71.828" y2="41.9724" stroke-width="1.728" x2="66.6112"/>
 </g>
 <g partID="142210">
  <line stroke="black" stroke-linecap="round" y1="8.1264" x1="71.7558" y2="42.008" stroke-width="1.728" x2="71.828"/>
 </g>
 <g partID="141520">
  <line stroke="black" stroke-linecap="round" y1="5.9584" x1="69.5832" y2="5.9584" stroke-width="1.728" x2="9.1192"/>
 </g>
 <g partID="83580">
  <line stroke="black" stroke-linecap="round" y1="70.7516" x1="9.11919" y2="70.6517" stroke-width="1.728" x2="41.0173"/>
 </g>
 <g partID="81270">
  <line stroke="black" stroke-linecap="round" y1="15.3264" x1="6.94867" y2="27.5496" stroke-width="1.728" x2="6.9344"/>
 </g>
 <g partID="227540">
  <line stroke="black" stroke-linecap="round" y1="20.3206" x1="28.6215" y2="20.3545" stroke-width="1.728" x2="47.9339"/>
 </g>
 <g partID="227390">
  <line stroke="black" stroke-linecap="round" y1="25.4985" x1="28.5712" y2="20.3206" stroke-width="1.728" x2="28.6215"/>
 </g>
 <g partID="227280">
  <line stroke="black" stroke-linecap="round" y1="27.5584" x1="16.3685" y2="27.5584" stroke-width="1.728" x2="26.4912"/>
 </g>
 <g partID="81080">
  <line stroke="black" stroke-linecap="round" y1="49.1697" x1="19.2912" y2="49.2373" stroke-width="1.728" x2="6.934"/>
 </g>
 <g partID="197950">
  <line stroke="black" stroke-linecap="round" y1="61.3411" x1="64.5512" y2="44.0184" stroke-width="1.728" x2="64.5512"/>
 </g>
 <g partID="188350">
  <line stroke="black" stroke-linecap="round" y1="6.0304" x1="57.3704" y2="18.1411" stroke-width="1.728" x2="57.3542"/>
 </g>
 <g partID="141590">
  <line stroke="black" stroke-linecap="round" y1="5.96925" x1="69.5832" y2="6.0304" stroke-width="1.728" x2="57.3704"/>
 </g>
 <g partID="82140">
  <line stroke="black" stroke-linecap="round" y1="34.7792" x1="6.9344" y2="61.3906" stroke-width="1.728" x2="6.9503"/>
 </g>
 <g partID="81590">
  <line stroke="black" stroke-linecap="round" y1="34.7792" x1="6.9344" y2="34.765" stroke-width="1.728" x2="11.9343"/>
 </g>
 <g partID="61950">
  <line stroke="black" stroke-linecap="round" y1="63.5584" x1="41.0173" y2="63.5584" stroke-width="1.728" x2="30.6112"/>
 </g>
 <g partID="227940">
  <line stroke="black" stroke-linecap="round" y1="61.3411" x1="57.3512" y2="44.0184" stroke-width="1.728" x2="57.3512"/>
 </g>
 <g partID="232470">
  <line stroke="black" stroke-linecap="round" y1="34.7337" x1="64.5257" y2="22.5757" stroke-width="1.728" x2="64.5473"/>
 </g>
 <g partID="227870">
  <line stroke="black" stroke-linecap="round" y1="34.7792" x1="57.3704" y2="34.7337" stroke-width="1.728" x2="64.5257"/>
 </g>
 <g partID="227730">
  <line stroke="black" stroke-linecap="round" y1="39.8984" x1="57.3567" y2="34.7792" stroke-width="1.728" x2="57.3704"/>
 </g>
 <g partID="232580">
  <line stroke="black" stroke-linecap="round" y1="27.5618" x1="37.8112" y2="27.594" stroke-width="1.728" x2="57.386"/>
 </g>
 <g partID="232970">
  <line stroke="black" stroke-linecap="round" y1="27.594" x1="57.386" y2="22.5757" stroke-width="1.728" x2="57.3619"/>
 </g>
</svg>
